<?xml version="1.0" encoding="utf-8"?>
<!-- Generator: Adobe Illustrator 23.0.3, SVG Export Plug-In . SVG Version: 6.00 Build 0)  -->
<svg version="1.1" id="Layer_1" xmlns="http://www.w3.org/2000/svg" xmlns:xlink="http://www.w3.org/1999/xlink" x="0px" y="0px"
	 viewBox="0 0 2697.2 972" style="enable-background:new 0 0 2697.2 972;" xml:space="preserve">
<style type="text/css">
	.st0{fill:#31C0C8;}
</style>
<g>
	<title>logo-grassdoor</title>
	<g>
		<path class="st0" d="M17.6,503.6c0-96.1,61.3-155.4,155.4-155.4c60.7,0,105.5,26.8,126.5,69.7c0.9,1.8,0.2,4-1.6,5L246.2,452
			c-2.7,1.5-5.9,0.5-7.5-2.2c-16.2-28.4-40.2-36.9-66.2-36.9c-47.2,0-77.1,34.8-77.1,88.7c0,54.3,24.9,87.8,73.3,87.8
			c46.4,0,69.6-30.7,70.4-53h-56.7c-3,0-5.4-2.4-5.4-5.4v-46.9c0-2.9,2.4-5.3,5.3-5.3h127.5c2.9,0,5.2,2.3,5.2,5.2v31.2
			c0,75-55.5,138.8-146.7,138.8C73.5,654,17.6,597.7,17.6,503.6"/>
		<path class="st0" d="M505,450.7l-13.7,46.4c-0.9,3-4.1,4.6-7,3.6c-7.5-2.7-14.7-4.1-22.5-4.1c-15.7,0-33.6,6.2-48.1,17.4v130.1
			c0,3-2.4,5.4-5.5,5.4h-63.7c-3,0-5.4-2.4-5.4-5.4V447.7c0-3,2.4-5.5,5.4-5.5h61c3,0,5.5,2.4,5.5,5.5v16.5
			c15.7-15.7,34.8-27.3,58.8-27.3c10.7,0,23,2.5,32.3,7.1C504.5,445.3,505.8,448,505,450.7"/>
		<path class="st0" d="M2015.9,450.7l-13.7,46.4c-0.9,3-4.1,4.6-7,3.6c-7.5-2.7-14.7-4.1-22.5-4.1c-15.7,0-33.6,6.2-48.1,17.4v130.1
			c0,3-2.4,5.4-5.5,5.4h-63.7c-3,0-5.5-2.4-5.5-5.4V447.7c0-3,2.4-5.5,5.5-5.5h60.8c3,0,5.5,2.4,5.5,5.5v16.5
			c15.7-15.7,34.8-27.3,58.8-27.3c10.7,0,23,2.5,32.3,7.1C2015.4,445.3,2016.7,448,2015.9,450.7"/>
		<path class="st0" d="M708.4,532.6v111.5c0,3-2.4,5.4-5.4,5.4h-52.9c-3,0-5.5-2.4-5.5-5.4v-16.5c-14.5,16.2-35.2,26.5-62.2,26.5
			c-42.7,0-71.3-24.9-71.3-64.2c0-51.8,50.1-69.2,101.9-69.2c9.5,0,19,0.4,27.7,1.6c0-21.1-17-29.4-35.6-29.4
			c-16.5,0-36.9,6.4-56.3,18.8c-2.6,1.6-6,1-7.6-1.6l-22.3-35.6c-1.4-2.3-1-5.4,1.1-7.1c23.1-18.6,59-31,94.7-30.5
			C666.8,437.6,708.4,480.5,708.4,532.6 M640.4,562.9h-23.2c-15.8,0-34,4.1-34,19.9c0,10.4,7,17.8,19.9,17.8
			C621.3,600.6,638.3,586.9,640.4,562.9"/>
		<path class="st0" d="M734.7,619.3l21.3-36.9c1.6-2.7,5.1-3.5,7.8-1.8c21,13.8,40.9,19.5,54.4,19.5c12.8,0,20.3-5,20.3-11.6
			c0-10.4-17-14.1-37.7-21.6c-32.7-11.6-57.2-27.3-57.2-60.9c0-43.1,36.5-69.2,89.5-69.2c30.9,0,60.3,9.7,80,22.4
			c2.4,1.6,3.1,4.7,1.6,7.2l-20.5,35.8c-1.5,2.6-4.7,3.4-7.3,2c-18.6-9.9-36.2-14.8-49.2-14.8c-13.7,0-19.9,5.4-19.9,10.8
			c0,7.9,11.2,11.6,27.7,17.4c30.2,10.8,71.3,22.8,71.3,67.1c0,44.7-43.9,69.2-94.1,69.2c-33,0-63.9-9.7-86.7-27.7
			C733.9,624.7,733.4,621.6,734.7,619.3"/>
		<path class="st0" d="M934.2,619.3l21.3-36.9c1.6-2.7,5.1-3.5,7.8-1.8c21,13.8,40.9,19.5,54.4,19.5c12.9,0,20.3-5,20.3-11.6
			c0-10.4-17-14.1-37.7-21.6c-32.7-11.6-57.2-27.3-57.2-60.9c0-43.1,36.5-69.2,89.5-69.2c30.9,0,60.3,9.7,80,22.4
			c2.4,1.6,3.1,4.7,1.6,7.2l-20.5,35.8c-1.5,2.6-4.7,3.4-7.3,2c-18.6-9.9-36.2-14.8-49.2-14.8c-13.7,0-19.9,5.4-19.9,10.8
			c0,7.9,11.2,11.6,27.8,17.4c30.2,10.8,71.3,22.8,71.3,67.1c0,44.7-43.9,69.2-94.1,69.2c-33,0-63.8-9.7-86.7-27.7
			C933.4,624.7,932.9,621.6,934.2,619.3"/>
		<path class="st0" d="M1353.2,359v285c0,3-2.4,5.5-5.4,5.5H1292c-3,0-5.5-2.4-5.5-5.5v-9.5c-16.6,12.8-35.2,20.3-56.3,20.3
			c-47.2,0-90.8-39.4-90.8-106.1c0-69.2,46.8-111.9,102.8-111.9c14.1,0,26.9,2.9,38.5,7.9V359c0-3,2.4-5.4,5.4-5.4h61.6
			C1350.7,353.6,1353.2,356,1353.2,359 M1248.7,596c9.5,0,21.5-3.3,31.9-12.9v-77.5c-9.1-6.6-19.5-10-28.2-10
			c-20.3,0-37.7,18.7-37.7,52.6C1214.8,571.6,1223.1,596,1248.7,596"/>
		<path class="st0" d="M1375.8,545.9c0.4-66.3,40.6-109,108.1-109c69.6,0,108.6,41.4,108.6,109c0,65.5-40.2,109-108.6,109
			C1416.4,654.8,1375.3,611.3,1375.8,545.9 M1521.2,545.9c0-34.8-13.7-50.5-37.3-50.5c-22.8,0-37.3,15.7-37.3,50.5
			s14.1,50.6,37.3,50.6C1507.5,596.4,1521.2,580.7,1521.2,545.9"/>
		<path class="st0" d="M1614,545.9c0.4-66.3,40.6-109,108.1-109c69.6,0,108.6,41.4,108.6,109c0,65.5-40.2,109-108.6,109
			C1654.6,654.8,1613.6,611.3,1614,545.9 M1759.5,545.9c0-34.8-13.7-50.5-37.3-50.5c-22.8,0-37.3,15.7-37.3,50.5
			s14.1,50.6,37.3,50.6C1745.8,596.4,1759.5,580.7,1759.5,545.9"/>
		<path class="st0" d="M2678.7,944.1c0.5-2.4,0.8-4.9,0.8-7.6L2672,26.7c0-3.3-0.7-6.3-1.8-9c-0.1-0.3-0.3-0.6-0.5-0.9l-24.9-8.9
			l-484.6,92l0.3,20.1c0.1,0.1,0.2,0.3,0.4,0.4l-0.2-14.4c0-0.1,0.1-0.2,0.1-0.3c0-0.1,0.1-0.2,0.2-0.2c0-0.1,0.1-0.1,0.2-0.2
			c0.1,0,0.1-0.1,0.2-0.1c0.3,0,0.6,0.1,0.9,0.5c0.3,0.3,0.7,0.8,1.1,1.5c0.4,0.6,0.8,1.4,1.2,2.2c0.4,0.8,0.8,1.6,1.3,2.5
			c0.4,0.8,0.9,1.7,1.3,2.5c0.4,0.8,0.8,1.5,1.2,2.2c0.4,0.6,0.8,1.1,1.1,1.5c0.3,0.3,0.7,0.5,0.9,0.5c0.1,0,0.1,0,0.2-0.1
			c0.1,0,0.1-0.1,0.2-0.2c0.1-0.1,0.1-0.2,0.2-0.2c0-0.1,0.1-0.2,0.1-0.3c3.1,6.4,5.7,13.1,8.1,20c2.4,6.9,4.4,14.1,6.3,21.4
			c1.9,7.3,3.6,14.8,5.2,22.3c1.6,7.5,3.3,15.1,4.9,22.7h0.7c0.5-1.2,25.6-31.4,26.2-32.7c13.1,26.7-8.2,114.3-8.2,123.4
			c0.8-0.3,1.9-1.5,3.2-3.3s2.7-4.1,4.2-6.4c1.4-2.3,2.9-4.6,4.2-6.4s12.3-14.1,13.1-14.4c9.1,20.4-18.4,110.6-19.4,118.1
			c1-0.4,2.3-1.2,3.7-2.2s2.9-2.3,4.3-3.5c1.5-1.3,3-2.5,4.4-3.6c1.4-1,13.4-5.7,14.5-6.1c-0.8,33.7-37.9,106.8-41,114.8
			c0.9,0.2,1.7,0.3,2.5,0.5s1.7,0.4,2.5,0.5c0.8,0.2,1.7,0.4,2.5,0.5c0.9,0.2,1.7,0.3,2.6,0.5c-1.7,13.2-3.9,26-6.3,38.7
			c-2.5,12.6-5.2,24.9-8.2,37.1c-1.6,6.3-3.2,12.6-4.9,18.9c0.8,0.4,1.6,0.8,2.4,1.2c3.5-10.4,7.1-20.9,10.9-31.4
			c4.3-12,8.8-23.9,13.6-35.4c4.9-11.6,10.2-22.8,16-33.4c0.4,0.4,0.9,1.2,1.6,2.3c0.6,1,1.3,2.3,2.1,3.6c0.7,1.3,1.4,2.6,2.1,3.6
			c0.6,1.1,1.2,1.9,1.6,2.3c1.8-4.7,3.6-9.5,5.6-14.2c1.9-4.7,3.9-9.4,6-14.1s4.2-9.3,6.3-13.8s4.3-9,6.5-13.3
			c2-4.8,4.2-9.8,6.3-14.8c2.1-5.1,4.3-10.2,6.5-15.3c2.2-5,4.4-10,6.6-14.7c2.2-4.7,4.5-9.2,6.7-13.4c0.4,1.1,0.6,3,0.7,5.3
			c0.1,2.3,0,5,0,7.7s-0.1,5.4,0,7.8c0.1,2.3,0.3,4.2,0.8,5.4c3.8-6.9,7.7-14.3,11.8-21.9c4-7.6,8.2-15.3,12.5-23
			s8.8-15.2,13.4-22.3c4.7-7.1,9.5-13.9,14.6-19.9c0.3,0.8,0.7,2.2,1.1,3.9c0.4,1.7,0.7,3.6,1.1,5.6c0.4,2,0.8,4,1.2,5.7
			s0.8,3.1,1.1,4c5.6-7.7,11.2-15.8,17-24.1c5.8-8.3,11.8-16.7,17.9-24.9c6.2-8.3,12.6-16.4,19.3-24c6.7-7.7,13.7-14.9,21-21.4
			c-0.4,1.6-0.6,3.8-0.8,6.3s-0.3,5.3-0.4,8.1c-0.1,2.8-0.3,5.5-0.4,8c-0.2,2.4-0.4,4.5-0.7,6c3.3-2.4,6.6-4.9,9.9-7.4
			c3.3-2.5,6.6-5,9.9-7.5c3.3-2.5,6.7-5,10-7.4c3.4-2.5,6.7-4.9,10.2-7.2c3.4-2.3,6.9-4.6,10.4-6.8s7.1-4.4,10.6-6.5
			c3.6-2.2,7.2-4.3,10.9-6.4c3.7-2.1,7.3-4.2,11-6.3c-1.3,4.8-2.7,9.6-4.1,14.3c-1.4,4.7-3,9.3-4.6,13.9c-1.6,4.5-3.3,9-5,13.4
			c-1.8,4.4-3.6,8.8-5.5,13.1c-1.9,4.3-3.8,8.6-5.7,12.9s-3.9,8.5-5.8,12.8c-1.9,4.3-3.9,8.5-5.9,12.7c-2,4.3-3.9,8.5-5.9,12.8
			c0.3-0.1,0.6-0.2,1-0.3c0.4-0.1,0.7-0.2,1.2-0.2c0.4-0.1,0.9-0.1,1.3-0.2c0.5,0,1-0.1,1.5-0.1s1-0.1,1.4-0.1c0.5,0,1,0,1.5-0.1
			c0.5,0,1,0,1.6,0c0.5,0,1.1,0,1.6,0s1.1,0,1.6,0s1.1,0,1.6,0s1.1,0,1.6-0.1c0.5,0,1-0.1,1.6-0.1s1.3-0.1,1.9-0.1
			c0.6-0.1,1.2-0.1,1.7-0.2s1.1-0.2,1.6-0.3c0.5-0.1,0.9-0.2,1.3-0.4c-5.2,9.6-11,18.7-17.4,27.3c-6.3,8.6-13,16.9-19.9,24.9
			c-6.8,7.9-13.7,15.6-20.6,23.1c-6.7,7.4-13.4,14.7-19.6,22c0.7,0.5,2.1,1,3.9,1.4c1.8,0.4,4,0.8,6.2,1.2c2.2,0.4,4.4,0.8,6.2,1.2
			c1.8,0.5,3.3,0.9,4,1.4c-4,5.3-8.5,10.5-13.4,15.6c-4.9,5-10.1,9.9-15.5,14.6c-5.3,4.7-10.8,9.3-16.3,13.7
			c-5.4,4.4-10.8,8.7-15.9,12.9c-1.1,1.1-2.3,2.1-3.4,3.2c-1.2,1.1-2.3,2.1-3.5,3.2c-1.2,1-2.4,2.1-3.5,3.1c-1.2,1-2.4,2-3.6,3
			c1,0.6,2.4,1.1,4.2,1.6s3.8,0.9,5.8,1.4c2,0.4,4.1,0.9,5.8,1.4c1.8,0.5,3.2,1.1,4.1,1.8c-2.7,2.3-5.6,4.5-8.7,6.7
			c-3.1,2.2-6.3,4.4-9.6,6.5s-6.6,4.2-9.9,6.2c-3.2,2-6.4,4-9.4,6l0.3,0.2c-3.9,3.4-8,6.6-12.2,9.8s-8.5,6.2-12.9,9.2
			c-4.4,2.9-8.8,5.7-13.3,8.4c-4.4,2.7-8.9,5.2-13.3,7.5c0.3,0.4,0.8,1,1.5,1.6s1.5,1.3,2.3,2s1.6,1.4,2.2,2
			c0.6,0.6,1.1,1.2,1.3,1.7c-3.1,2.7-6.5,5.3-10.1,7.7c-3.5,2.4-7.2,4.7-10.9,6.9s-7.4,4.3-10.9,6.5c-3.5,2.1-7,4.3-10.1,6.5
			c-2.1,1.6-4.1,3.2-6.2,4.7c-2.1,1.5-4.2,3.1-6.2,4.5c-2.1,1.5-4.2,2.9-6.3,4.3c-2.1,1.4-32.4,13.9-34.5,15.2
			c-2.5,1.6-6.6,4-11.5,6.8c-0.1,0-0.2,0.1-0.3,0.2c0.1,1.7,0.2,3.4,0.2,5.1c4.3-1.9,8.5-3.7,12.4-5.4c6.4-2.7,40.2-16,44.2-17.1
			c-0.4,0.3-0.8,0.6-1.2,0.8c-0.4,0.3-0.8,0.6-1.2,0.8c-0.4,0.3-0.8,0.6-1.2,0.8c-0.4,0.3-0.8,0.6-1.2,0.8l-0.6,0.4l-0.6,0.4
			l-0.6,0.4c-0.2,0.1-0.4,0.3-0.6,0.4c-1.1,0.1-2.3,0.2-3.4,0.4c-1.1,0.2-30.4,11.5-31.6,11.8c-1.1,0.3-2.2,0.7-3.4,1.2
			c-1.1,0.4-2.2,1-3.3,1.6c-0.4,0.2-0.7,0.4-1.1,0.6c-0.4,0.2-0.7,0.4-1.1,0.6c-0.4,0.2-0.7,0.4-1,0.6c-0.4,0.2-0.7,0.4-1,0.6
			c3.5-1.2,7-2.4,10.5-3.5c3.6-1.1,35.3-13.2,39-14.1c3.6-0.9,7.3-1.7,11-2.4s7.5-1.3,11.3-1.7c0.1,0.9,0.2,1.8,0.3,2.8
			s0.2,1.9,0.3,2.9s0.2,1.9,0.3,2.9s0.2,1.9,0.3,2.9c4.8-2.8,9.6-5.3,14.6-7.7s10-4.5,15.2-6.4s10.4-3.6,15.8-4.9
			c5.4-1.4,10.9-2.5,16.6-3.3c-0.2,1.1-0.4,2.3-0.7,3.5c-0.2,1.2-0.4,2.4-0.6,3.6c-0.2,1.2-0.4,2.4-0.6,3.7
			c-0.2,1.2-0.4,2.4-0.7,3.5c4-0.5,8-1.2,12.1-2s8.2-1.7,12.3-2.5c4.2-0.8,8.3-1.5,12.5-2c4.2-0.4,8.4-0.6,12.7-0.3
			c0.7,0,1.3,0.1,2,0.2c0.7,0,1.3,0.1,2,0.2c0.7,0.1,1.3,0.2,2,0.3s1.3,0.2,2,0.4c-0.2,0.8-0.4,2.2-0.6,3.7
			c-0.3,1.6-0.5,3.4-0.8,5.3c-0.3,1.8-0.6,3.7-0.8,5.3c-0.3,1.6-0.5,2.9-0.7,3.8c5.8,0.7,11.6,1.2,17.4,1.7
			c5.8,0.5,11.6,0.9,17.4,1.7c5.8,0.8,11.7,1.8,17.5,3.3c5.9,1.6,11.8,3.8,17.7,6.8c-0.8,0.6-1.7,1.7-2.5,3.1
			c-0.8,1.4-1.6,3-2.4,4.7c-0.8,1.6-1.6,3.3-2.4,4.6c-0.8,1.4-1.6,2.5-2.5,3.1c5.3,2.9,10.5,5.9,15.6,9.1
			c5.2,3.2,10.3,6.5,15.4,10.1c5.1,3.6,10.1,7.3,15.1,11.4c5,4.1,9.9,8.3,14.8,12.9c-5.1,2.8-10.3,5.3-15.6,7.5s-10.6,4.2-16,5.9
			s-10.8,3.2-16.2,4.5s-10.8,2.4-16.2,3.3c0.8,0.9,1.5,1.8,2.2,2.7s1.5,1.7,2.2,2.6c0.7,0.8,1.5,1.7,2.2,2.6
			c0.7,0.9,1.5,1.8,2.3,2.7c-4.3,0.6-8.5,1-12.7,1.3s-8.4,0.5-12.6,0.5c-4.2,0-8.3-0.1-12.4-0.3c-4.1-0.2-8.2-0.6-12.3-1.1
			c-1.7-0.2-3.4-0.4-5.1-0.7c-1.7-0.3-3.4-0.6-5-0.9c-1.7-0.3-3.4-0.6-5-1c-1.7-0.4-3.3-0.8-5-1.2c0.1,0.9,0.2,1.8,0.3,2.7
			c0.1,0.8,0.2,1.7,0.3,2.5s0.2,1.6,0.3,2.4c0.1,0.8,0.2,1.6,0.3,2.4c-0.4,0-0.8,0.1-1.2,0.1c-0.5,0-0.9,0-1.5,0
			c-0.5,0-1.1-0.1-1.6-0.1c-0.6-0.1-1.2-0.1-1.8-0.2c-3.5-0.5-7.8-1.4-12.3-2.5s-9.1-2.5-13.4-3.9c-4.3-1.4-8.2-2.9-11.2-4.2
			s-5.2-2.5-5.9-3.4c-0.9-0.3-1.6-0.5-2.4-0.7c-0.7-0.2-1.4-0.4-2-0.6c-0.6-0.2-1.2-0.4-1.8-0.5c-0.6-0.2-1.1-0.3-1.6-0.5
			c-0.1,0.4-0.1,0.7-0.2,1.1c-0.1,0.4-0.1,0.7-0.2,1.1c-0.1,0.3-0.1,0.7-0.2,1c-0.1,0.4-0.1,0.7-0.2,1c0.1,0,0.2-0.1,0.3-0.1
			s0.3-0.1,0.4-0.2c0.2-0.1,0.3-0.1,0.6-0.2c0.2-0.1,0.5-0.2,0.7-0.3c0.1,0.8,0.2,1.5,0.3,2.2s0.2,1.5,0.3,2.2s0.2,1.4,0.3,2.2
			c0.1,0.7,0.2,1.4,0.3,2.1l-0.7,0.8c-5.3-2.6-10.6-5.4-15.7-8.4c-5.1-3-10.1-6.3-15-9.8s-9.7-7.2-14.4-11.1
			c-4.7-3.9-9.3-8-13.9-12.4c-0.1,0.5-0.1,1-0.2,1.4c-0.1,0.5-0.2,0.9-0.2,1.3c-0.1,0.4-0.1,0.9-0.2,1.3c-0.1,0.4-0.2,0.8-0.2,1.3
			c0,0.4-0.1,0.8-0.2,1.2c-0.1,0.4-0.1,0.8-0.2,1.3c-0.1,0.4-0.1,0.8-0.2,1.3c0,0.5-0.1,0.9-0.2,1.4c-5.5-2.7-12.5-6.8-20.2-11.7
			c-7.6-4.9-15.9-10.5-24.1-16.3c-4.6-3.3-9.2-6.5-13.7-9.8c-0.4,0.7-0.9,1.4-1.3,2c1.8,1.5,3.5,3,5,4.3c3.5,3.1,6.3,5.6,7.5,6.9
			c1.2,1.3,2.5,2.7,3.7,4.1c1.2,1.4,2.5,2.8,3.7,4.2s2.5,2.9,3.7,4.3c1.3,1.5,2.5,2.9,3.8,4.4c-0.3,0.5-0.7,1-1,1.4
			c-0.3,0.5-0.6,0.9-0.9,1.3c-0.3,0.4-0.6,0.9-0.9,1.3c-0.3,0.4-0.6,0.9-1,1.4c3.3,2.3,6.6,4.9,9.8,7.5c3.2,2.7,6.3,5.5,9.4,8.5
			c3.1,3,6.2,6.1,9.2,9.4c3,3.3,6,6.8,8.9,10.5c-0.5,0.3-1,0.5-1.5,0.8s-1,0.5-1.4,0.7s-0.8,0.4-1.2,0.6c-0.4,0.2-0.7,0.4-0.9,0.5
			c1,1.6,2,3.2,3,4.8s2,3.2,3,4.9c1,1.6,2,3.3,3,4.9c1,1.7,2,3.3,3,5s2,3.4,2.9,5.1c1,1.7,1.9,3.4,2.9,5.2c1,1.7,2,3.5,3,5.3
			s2,3.6,3,5.4c-0.5,0.3-0.9,0.5-1.3,0.8c-0.4,0.2-0.8,0.5-1.2,0.7s-0.8,0.5-1.1,0.7c-0.4,0.2-0.7,0.4-1.1,0.7
			c2.3,4.2,4.5,8.4,6.6,12.7s4.1,8.8,5.9,13.3c1.9,4.5,3.6,9.1,5.2,13.8c1.6,4.7,3.2,9.5,4.6,14.5c-0.6-0.3-1.1-0.6-1.7-0.9
			c-0.5-0.3-1.1-0.6-1.6-0.8c-0.6-0.3-1.1-0.5-1.6-0.8c-0.6-0.3-1.1-0.6-1.7-0.9c1.2,4.5,2.4,9,3.4,13.4c1,4.5,2,8.9,2.8,13.4
			s1.6,9,2.2,13.5c0.6,4.5,1.1,9.1,1.4,13.7c-3.2-2.2-6.3-4.5-9.3-7s-6-5-8.9-7.7s-5.7-5.5-8.5-8.4s-5.5-5.9-8.3-9l0.1,9.5
			c-3-3.6-5.8-7.2-8.5-10.9s-5.4-7.4-7.9-11.3c-2.5-3.8-4.9-7.8-7.2-11.8s-4.5-8.2-6.5-12.5c-0.3,0.4-0.6,0.7-0.8,1.1
			c-0.3,0.4-0.5,0.7-0.8,1.1c-0.3,0.4-0.6,0.7-0.8,1.1c-0.3,0.4-0.5,0.7-0.8,1.2c-2-3.4-3.9-6.8-5.7-10.4c-1.8-3.5-3.5-7.1-5.1-10.7
			c-1.6-3.6-3.1-7.3-4.5-11.1c-1.4-3.7-2.8-7.5-4.1-11.4c-0.4,0.5-0.7,1-1,1.6c-0.3,0.5-0.7,1-1,1.5s-0.7,1-1,1.6
			c-0.4,0.5-0.7,1.1-1.1,1.6c-1.6-4.7-3-9.5-4.3-14.2c-1.3-4.8-2.5-9.5-3.5-14.3s-1.9-9.6-2.7-14.5s-1.4-9.8-2-14.7
			c-0.4,0.2-1.1,0.8-2,1.5s-1.9,1.6-2.9,2.4c-1,0.8-2,1.7-2.9,2.4s-1.6,1.3-2,1.5c-2-5.8-3.4-10.6-4.7-15.1
			c-1.2-4.6-2.3-8.9-3.3-14.1c-1-5.2-2-11.2-3.3-18.9c-0.2-1.4-0.5-3-0.7-4.6c-2.7,0.6-5.5,0.9-8.3,1L2174,865l470.2,99.6
			L2678.7,944.1z M2605.5,541.5c-16.3,0-29.5-18.6-29.5-41.5c0-22.9,13.2-41.5,29.5-41.5s29.5,18.6,29.5,41.5
			C2635,522.9,2621.8,541.5,2605.5,541.5"/>
	</g>
</g>
</svg>
